<?xml version="1.0" encoding="utf-8"?>
<!-- Generator: Adobe Illustrator 18.0.0, SVG Export Plug-In . SVG Version: 6.00 Build 0)  -->
<!DOCTYPE svg PUBLIC "-//W3C//DTD SVG 1.1//EN" "http://www.w3.org/Graphics/SVG/1.1/DTD/svg11.dtd">
<svg version="1.1" id="Layer_1" xmlns="http://www.w3.org/2000/svg" xmlns:xlink="http://www.w3.org/1999/xlink" x="0px" y="0px"
	 viewBox="0 0 1400 1700" enable-background="new 0 0 1400 1700" xml:space="preserve">
<g>
	<g>
		<rect fill="#F4F6EB" width="1400" height="1700"/>
		<path fill="#D5D8C5" d="M191.4,977.1c32.6,8.9,67.6,7.3,101,13.4s68.3,23.2,77.8,53c11.6,36.4-20.1,73-55.5,92.8
			s-77.2,31.1-107.2,57.3c-48.2,42-52.9,114.9-21.8,168.6c31,53.8,91.1,89.6,154.6,108.2s130.8,21.8,197.4,24.9
			c99.7,4.7,199.3,9.4,299,14c57.9,2.7,116.6,5.4,173.4-4.9c56.9-10.3,112.8-35.1,147.1-77.8c34.3-42.7,42.2-105,9.3-148.5
			c-21.1-27.9-55.2-45-83.2-67.3c-28-22.4-51.4-56.6-40-88.9c12-33.8,54.7-48.2,82.1-73.4c36-33.2,42.7-89.5,15.4-129
			c-24.4-35.4-69.4-54-113.3-66.1c-43.9-12.1-90.1-20.1-129-42.1c-38.9-22.1-69.5-63.5-59.3-104.3c8.7-34.7,44.4-59.1,81.9-68.9
			c37.5-9.8,77.2-8,116.2-8.5c68.2-0.9,141-11.4,190.9-53.7c49.9-42.4,61.8-125.5,8.3-164c-35.2-25.3-84.3-24-129.1-25.5
			s-96.1-11-117.8-46.8c-21.3-35.2-5.4-83.3-31.5-115.7c-14.4-17.9-38.6-26.7-61.8-33.5c-174.7-51.2-371-38.2-535.8,35.5
			c-39.7,17.8-78.3,39.4-107.4,69.7s-48,70.7-43.5,110.8c7.9,70.6,84.4,129.8,70.4,199.6c-15,74.7-119.2,101-167.2,163
			c-27.1,35-34.4,82-19.1,122.4C108.9,932,146.5,964.9,191.4,977.1z"/>
	</g>
	<g>
		<path fill="#F5A167" d="M384.9,727.8l-61.1,28.3h-74.7v6c0,7.6,6.1,13.7,13.7,13.7h0v38h67.8v-22.6l54.2-20.5V727.8z"/>
		<g>
			<polygon fill="#912527" points="503.5,476.4 566.6,663.2 566.6,476.4 			"/>
			<polygon fill="#F13B17" points="374.4,727.6 374.4,824 395.3,813.9 395.3,718 			"/>
			<polygon fill="#FDB128" points="395.3,718 395.3,813.9 411.3,806.1 411.3,710.6 			"/>
			<path fill="#F13B17" d="M501.5,476.4v192.8l-90.1,41.4v95.5l96-46.4c36.2-17.5,59.2-54.2,59.2-94.4v-2.1l-63-186.8H501.5z"/>
		</g>
		<g>
			<polygon fill="#F13B17" points="503.5,476.4 658.6,810.6 720.7,810.6 565.6,476.4 			"/>
			<polygon fill="#F13B17" points="827.5,597.4 731.5,540.5 801.2,540.5 801.2,540.5 771.4,476.4 579.2,476.4 734.3,810.6 
				926.4,810.6 			"/>
			<polygon fill="#912527" points="731.5,540.5 827.5,597.4 801.2,540.5 801.2,540.5 			"/>
			<polygon fill="#FDB128" points="565.6,476.4 720.7,810.6 734.3,810.6 579.2,476.4 			"/>
		</g>
		<g>
			
				<rect x="301.1" y="1346.4" transform="matrix(0.7071 0.7071 -0.7071 0.7071 1064.1924 168.5692)" fill="#FFFFFF" width="55" height="45"/>
			<polygon fill="#001C2B" points="293.3,1365.4 240.4,1358.8 191.8,1328.4 181.6,1338.6 250.4,1408.2 283.2,1426 275.7,1433.5 
				301.5,1459.3 332.1,1404.2 			"/>
		</g>
		<g>
			
				<rect x="1091.5" y="1024.1" transform="matrix(-0.7071 -0.7071 0.7071 -0.7071 1170.1521 2577.9351)" fill="#FFFFFF" width="55" height="45"/>
			<polygon fill="#001C2B" points="1154.3,1050.1 1207.2,1056.7 1255.8,1087.1 1266,1076.9 1197.2,1007.3 1164.4,989.5 1171.9,982 
				1146.1,956.2 1115.5,1011.3 			"/>
		</g>
		<rect x="580.4" y="456.4" fill="#912527" width="91.8" height="23.2"/>
		<g>
			<path fill="#E27A34" d="M632.2,450.6l-31.8-23l-71.8,18.3l29,39.4h10C594.2,485.3,618.2,471.8,632.2,450.6z"/>
			<path fill="#F5A167" d="M672.2,479.6l-40-29c-14,21.2-38.1,34.7-64.6,34.7h-10l32.5,44.1L672.2,479.6z"/>
		</g>
		<polygon fill="#F13B17" points="677.4,240.7 538.8,240.7 525.6,295.7 664.7,295.7 		"/>
		<polygon fill="#FDB128" points="664.7,295.7 525.6,295.7 522.8,307.4 661.9,307.4 		"/>
		<polygon fill="#F13B17" points="522.8,307.4 518.3,325.7 657.7,325.7 661.9,307.4 		"/>
		<g>
			<path fill="#001C2B" d="M657.7,325.7h-81.9l-4.5,18.8c-1.1,4.7,1.1,9.6,5.4,11.9l3.8,2c3.9,2.1,6.1,6.3,5.6,10.7l-1.6,13
				c-1.3,10.4,2.1,20.9,9.2,28.6v0l6.7-45.9h3.7c10.3,0,18.6,8.3,18.6,18.6v8.8c0,10.3-8.3,18.6-18.6,18.6
				c0,12.5,8.1,23.1,19.3,26.9c7.7-8.9,13.3-19.8,15.8-31.9L657.7,325.7z"/>
			<path fill="#F5A167" d="M604.1,410.7c10.3,0,18.6-8.3,18.6-18.6v-8.8c0-10.3-8.3-18.6-18.6-18.6h-3.7l-6.7,45.9v0
				c-7.1-7.8-10.4-18.2-9.2-28.6l1.6-13c0.5-4.4-1.7-8.6-5.6-10.7l-3.8-2c-4.3-2.3-6.5-7.2-5.4-11.9l4.5-18.8h-57.5l-7.4,30.7
				l-33.8,43H502l-8.7,41.7c-2.2,10.7,5.9,20.7,16.9,20.7h59.9c21,0,40.2-9.3,53.3-24.3C612.2,433.8,604.1,423.2,604.1,410.7z"/>
		</g>
		<path fill="#F13B17" d="M590.1,529.5L590.1,529.5c0-14.4,7.5-27.7,19.8-35.2l62.3-37.8v23.2L590.1,529.5z"/>
		<path fill="#F13B17" d="M590.1,529.5L590.1,529.5c0-18.1-10.7-34.5-27.2-41.8l-5.3-2.3L590.1,529.5z"/>
		<g>
			<polygon fill="#001C2B" points="742.8,949 780.7,901.9 656.8,901.9 			"/>
			<path fill="#003E5C" d="M1082.1,1007.5L961,1104.8l-34.6-294.2H658.6l-372.4,521.4l97.9,61.8L742.8,949l-86-47.1h124l58.3,249.5
				c19.1,81.7,118.4,113.4,181.3,57.8l121.1-107L1082.1,1007.5z"/>
		</g>
		<circle fill="#FDB128" cx="636.7" cy="533.6" r="6.9"/>
		<circle fill="#FDB128" cx="657" cy="576.7" r="6.9"/>
		<circle fill="#FDB128" cx="677.4" cy="619.8" r="6.9"/>
		<circle fill="#FDB128" cx="697.7" cy="662.9" r="6.9"/>
		<circle fill="#FDB128" cx="718.1" cy="706" r="6.9"/>
		<circle fill="#FDB128" cx="738.5" cy="749.1" r="6.9"/>
		<polygon fill="#E27A34" points="262.8,775.8 321.2,775.8 321.2,806.1 331.1,767.7 		"/>
		<g>
			<path fill="#93CBEA" d="M895,812.2h122.7c13.8,0,25,11.2,25,25v190.7c0,13.8-11.2,25-25,25H895c-13.8,0-25-11.2-25-25V837.1
				C870,823.4,881.2,812.2,895,812.2z"/>
			<path fill="#C4E3FA" d="M920.7,812.2h122.7c13.8,0,25,11.2,25,25v190.7c0,13.8-11.2,25-25,25H920.7c-13.8,0-25-11.2-25-25V837.1
				C895.7,823.4,906.9,812.2,920.7,812.2z"/>
			<path fill="#93CBEA" d="M940,812.2h122.7c13.8,0,25,11.2,25,25v190.7c0,13.8-11.2,25-25,25H940c-13.8,0-25-11.2-25-25V837.1
				C915,823.4,926.2,812.2,940,812.2z"/>
			<path fill="#2D73AE" d="M1194.8,837.1v190.7c0,13.8-11.2,25-25,25H968.9c-13.8,0-25-11.2-25-25V837.1c0-13.8,11.2-25,25-25h200.9
				C1183.6,812.2,1194.8,823.4,1194.8,837.1z"/>
			<path fill="#2D73AE" d="M1073.3,749.1h-11.3h-60.5h-11.3c-15.1,0-27.3,12.2-27.3,27.3v35.8h19.3v-32.4c0-6.5,5.3-11.8,11.8-11.8
				h75.4l0,0c6.5,0,11.8,5.3,11.8,11.8v32.4h19.3v-35.8C1100.7,761.3,1088.4,749.1,1073.3,749.1z"/>
		</g>
		<g>
			<path fill="#93CBEA" d="M159,839h122.7c13.8,0,25,11.2,25,25v190.7c0,13.8-11.2,25-25,25H159c-13.8,0-25-11.2-25-25V864
				C134,850.2,145.2,839,159,839z"/>
			<path fill="#C4E3FA" d="M184.6,839h122.7c13.8,0,25,11.2,25,25v190.7c0,13.8-11.2,25-25,25H184.6c-13.8,0-25-11.2-25-25V864
				C159.7,850.2,170.9,839,184.6,839z"/>
			<path fill="#93CBEA" d="M204,839h122.7c13.8,0,25,11.2,25,25v190.7c0,13.8-11.2,25-25,25H204c-13.8,0-25-11.2-25-25V864
				C179,850.2,190.2,839,204,839z"/>
			<path fill="#2D73AE" d="M458.8,864v190.7c0,13.8-11.2,25-25,25H232.9c-13.8,0-25-11.2-25-25V864c0-13.8,11.2-25,25-25h200.9
				C447.6,839,458.8,850.2,458.8,864z"/>
			<path fill="#2D73AE" d="M337.3,775.9H326h-60.5h-11.3c-15.1,0-27.3,12.2-27.3,27.3V839h19.3v-32.4c0-6.5,5.3-11.8,11.8-11.8h75.4
				l0,0c6.5,0,11.8,5.3,11.8,11.8V839h19.3v-35.8C364.7,788.2,352.4,775.9,337.3,775.9z"/>
		</g>
		<path fill="#F5A167" d="M985.7,656l19.7,50.1h0c-12.5,10.5-19.7,26-19.7,42.4v0.7h19.7v24.1h73.7L1025.2,656H985.7z"/>
		<g>
			<polygon fill="#F13B17" points="982.7,668.5 1079.1,668.5 1067,643.5 971.2,643.5 			"/>
			<path fill="#F13B17" d="M920.4,476.4H731.5v64.2h192.8l39.5,86.9h95.4l-44.4-91.9C997.3,499.4,960.6,476.4,920.4,476.4z"/>
			<polygon fill="#FDB128" points="963.9,627.5 971.2,643.5 1067,643.5 1059.3,627.5 			"/>
		</g>
		<rect x="262.8" y="775.8" fill="#F5A167" width="58.4" height="38"/>
	</g>
	<ellipse fill="#001C2B" cx="700" cy="1501.6" rx="566" ry="42.3"/>
</g>
</svg>
